<svg width="18" height="20" viewBox="0 0 18 20" fill="none" xmlns="http://www.w3.org/2000/svg">
<path d="M9.88 14.29L8 16.17V12.41L9.88 14.29ZM8 3.83L9.88 5.71L8 7.58V3.83ZM12.71 5.71L7 0H6V7.58L1.41 3L0 4.41L5.59 10L0 15.58L1.41 17L6 12.41V20H7L12.71 14.29L8.41 10L12.71 5.71ZM16.53 4.71L15.26 6C15.89 7.18 16.25 8.55 16.25 10C16.25 11.45 15.89 12.82 15.26 14L16.46 15.22C17.4667 13.6319 18.0008 11.7903 18 9.91C18 8 17.46 6.23 16.53 4.71ZM11.24 10L13.56 12.33C13.84 11.6 14 10.82 14 10C14 9.18 13.84 8.4 13.57 7.68L11.24 10Z" fill="#F2994A"/>
</svg>
