<svg width="35" height="30" viewBox="0 0 35 30" fill="none" xmlns="http://www.w3.org/2000/svg">
<path d="M6.27273 7C5.40475 7 4.57231 7.3448 3.95856 7.95856C3.3448 8.57231 3 9.40475 3 10.2727V20.0909C3 20.9589 3.3448 21.7913 3.95856 22.4051C4.57231 23.0188 5.40475 23.3636 6.27273 23.3636H11.1818V20.0909H6.27273V10.2727H11.1818V7H6.27273ZM16.0909 7C15.2229 7 14.3905 7.3448 13.7767 7.95856C13.163 8.57231 12.8182 9.40475 12.8182 10.2727V20.0909C12.8182 20.9589 13.163 21.7913 13.7767 22.4051C14.3905 23.0188 15.2229 23.3636 16.0909 23.3636H19.3636C20.2316 23.3636 21.064 23.0188 21.6778 22.4051C22.2916 21.7913 22.6364 20.9589 22.6364 20.0909V10.2727C22.6364 9.40475 22.2916 8.57231 21.6778 7.95856C21.064 7.3448 20.2316 7 19.3636 7H16.0909ZM16.0909 10.2727H19.3636V20.0909H16.0909V10.2727ZM24.2727 12.7273V15.1818H29.1818V17.6364H26.7273C26.0763 17.6364 25.452 17.895 24.9916 18.3553C24.5313 18.8156 24.2727 19.4399 24.2727 20.0909V25H31.6364V22.5455H26.7273V20.0909H29.1818C29.8328 20.0909 30.4571 19.8323 30.9174 19.372C31.3778 18.9117 31.6364 18.2873 31.6364 17.6364V15.1818C31.6364 14.5308 31.3778 13.9065 30.9174 13.4462C30.4571 12.9859 29.8328 12.7273 29.1818 12.7273H24.2727Z" fill="#008ACC"/>
</svg>
