<svg fill="none" height="56" viewBox="0 0 56 56" width="56" xmlns="http://www.w3.org/2000/svg"><rect fill="#001272" height="56" rx="8" width="56"/><path d="m38.9711 49.8695c-.3545-.3745-.6287-.8173-.8059-1.3015-.1725-.4701-.3631-1.5846-.6099-3.5703 0 0-.8041-5.9555-1.4194-11.1267-.6971-5.8702-6.1715-5.5543-6.1715-5.5543l-.9402 13.9528s-.1234 2.1582-.3885 4.0478c-.0854.7624-.2391 1.5157-.4592 2.2507-.1773.4842-.4515.927-.8059 1.3015z" fill="#fff"/><path d="m37.4209 25.6775h-1.7516v-1.748c-2.1509.7261-5.0188 1.8496-7.079 2.7336l-.0181.7642h8.8487z" fill="#fff"/><path d="m46.1279 14.0024c.1511-1.1879-.0272-2.3945-.5154-3.488-.4881-1.0935-1.2674-2.03181-2.2526-2.71247-2.9623-2.02932-8.061-2.52122-14.7135.24686-12.0016 4.99521-20.5 16.12921-18.5142 22.52941 1.2869 4.153 4.7937 6.2222 6.6542 6.9229 2.7826 1.0437 7.8885 1.4521 10.9833.9475l.0817-.9294c-1.8521.2802-3.7349.2924-5.5906.0363-4.3563-.6952-6.1569-4.0895-1.2343-8.0501 2.8371-2.2834 8.1373-4.7193 11.4825-6.1024 6.2731-2.5757 12.9727-4.3908 13.6189-9.4006z" fill="#f8d100"/></svg>